<?xml version="1.0" standalone="no"?>
<!DOCTYPE svg PUBLIC "-//W3C//DTD SVG 20010904//EN"
 "http://www.w3.org/TR/2001/REC-SVG-20010904/DTD/svg10.dtd">
<svg version="1.0" xmlns="http://www.w3.org/2000/svg"
 width="1165.000000pt" height="1080.000000pt" viewBox="0 0 1165.000000 1080.000000"
 preserveAspectRatio="xMidYMid meet">
<metadata>
Created by potrace 1.12, written by Peter Selinger 2001-2015
</metadata>
<g transform="translate(0.000000,1080.000000) scale(0.100000,-0.100000)"
fill="#000000" stroke="none">
<path d="M0 5400 l0 -5400 5825 0 5825 0 0 5400 0 5400 -5825 0 -5825 0 0
-5400z m5782 2760 l48 0 2 -1772 3 -1771 1670 1770 1670 1771 183 1 c101 1
182 -3 180 -7 -1 -5 -493 -530 -1092 -1168 -598 -637 -1090 -1164 -1093 -1171
-4 -10 647 -1041 1758 -2785 l158 -248 -167 0 -167 0 -750 1173 c-700 1094
-1035 1610 -1053 1621 -11 6 -848 -873 -1159 -1218 l-143 -159 0 -708 0 -709
-883 0 c-549 0 -925 4 -993 11 -432 42 -856 216 -1225 503 -116 90 -290 249
-371 338 -165 184 -378 525 -468 751 -76 190 -165 560 -196 817 -23 193 -15
483 19 680 57 324 182 705 299 915 221 394 527 729 878 960 253 167 480 265
775 335 266 64 260 63 1110 70 429 4 820 5 869 3 49 -1 111 -3 138 -3z"/>
<path d="M4040 7854 c-14 -2 -65 -9 -115 -15 -360 -45 -734 -209 -1040 -456
-119 -96 -334 -315 -427 -433 -245 -315 -422 -761 -478 -1200 -5 -47 -13 -100
-16 -117 l-5 -33 1276 0 1275 0 0 -145 0 -145 -1275 0 c-701 0 -1275 -3 -1275
-7 0 -36 44 -295 64 -378 58 -241 167 -521 282 -729 149 -269 449 -590 720
-772 175 -116 462 -247 648 -294 246 -62 258 -63 1109 -67 l777 -4 0 2400 0
2401 -747 -1 c-412 -1 -759 -3 -773 -5z"/>
</g>
</svg>
